<svg width="32" height="32" viewBox="0 0 32 32" fill="none" xmlns="http://www.w3.org/2000/svg">
<path fill-rule="evenodd" clip-rule="evenodd" d="M4.04074 2.30534C2.28054 2.91356 0.976885 4.19082 0.317374 5.95319C-0.0170587 6.84724 -0.0252441 7.13256 0.0191911 16.2523L0.0649626 25.6318L0.510984 26.5833C1.07995 27.7972 2.24279 28.9601 3.45673 29.529C4.36465 29.9547 4.54974 29.9772 7.49866 30.0233C10.3428 30.0679 10.6317 30.0452 11.123 29.739C12.249 29.0372 12.249 27.0627 11.123 26.3761C10.6576 26.0923 10.2725 26.0506 8.11975 26.0501C6.36473 26.0496 5.48605 25.9807 5.08212 25.812C3.97308 25.3486 3.99062 25.506 3.99062 16.0264C3.99062 6.54689 3.97308 6.70425 5.08212 6.24085C5.48605 6.07213 6.36473 6.00331 8.11975 6.00281C10.2725 6.00231 10.6576 5.96054 11.123 5.67673C12.2495 4.98982 12.2495 3.00795 11.123 2.32104C10.648 2.03154 10.2752 1.99613 7.74923 2.0003C5.45932 2.00431 4.74118 2.06328 4.04074 2.30534ZM20.5414 6.43597L20.0274 6.86846V9.44285V12.0173H15.5839H11.1403L10.5724 12.5852L10.0044 13.1532V16.0264V18.8997L10.5724 19.4677L11.1403 20.0356H15.5839H20.0274V22.61V25.1844L20.5414 25.6169C21.2894 26.2463 21.8604 26.1804 22.8153 25.3538C25.32 23.186 31.866 16.8046 31.957 16.4419C32.0143 16.2134 32.0143 15.8395 31.957 15.611C31.866 15.2483 25.32 8.86687 22.8153 6.69907C21.8604 5.87251 21.2894 5.80652 20.5414 6.43597Z" fill="white"/>
</svg>
