<svg width="32" height="32" viewBox="0 0 32 32" fill="none" xmlns="http://www.w3.org/2000/svg">
<path fill-rule="evenodd" clip-rule="evenodd" d="M14.834 0.356975C13.4832 1.03176 13.4067 1.43055 13.4065 7.80203L13.4061 13.4626H7.78996C1.71895 13.4626 1.11046 13.5526 0.459548 14.546C-0.0689777 15.3523 -0.147308 16.3725 0.254135 17.2184C0.874658 18.5257 1.07354 18.5622 7.5823 18.5622H13.4061V24.294C13.4061 29.1764 13.4554 30.1298 13.7396 30.7285C14.1953 31.6889 15.0465 32.0961 16.339 31.9718C17.1955 31.8894 17.4642 31.7582 17.9372 31.1918L18.5057 30.5109V24.5451V18.5794L24.6479 18.5198L30.7901 18.4603L31.3794 17.7541C32.4746 16.4416 32.0758 14.5623 30.5329 13.7645C30.0582 13.5191 28.8802 13.4626 24.2275 13.4626H18.5057V7.57458C18.5057 1.91236 18.4894 1.66574 18.0798 1.14497C17.5737 0.501804 16.669 -0.000611397 16.0171 5.58435e-07C15.759 5.58435e-07 15.2266 0.160741 14.834 0.356975Z" fill="white"/>
</svg>
